<?xml version="1.0" encoding="UTF-8"?><svg id="Layer_2" xmlns="http://www.w3.org/2000/svg" viewBox="0 0 83.87 83.87"><defs><style>.cls-1{fill:#72994e;}</style></defs><path class="cls-1" d="M83.32,40.7l-6.47-6.47-33.49,33.49c-.73.73-1.93.73-2.66,0l-24.55-24.55c-.73-.73-.73-1.93,0-2.66L49.64,7.02l-6.47-6.47c-.73-.73-1.93-.73-2.66,0L.55,40.51c-.73.73-.73,1.93,0,2.66l.19.19s0,0,0,0l39.96,39.96c.73.73,1.93.73,2.66,0l39.96-39.96c.73-.73.73-1.93,0-2.66Z"/><rect class="cls-1" x="33.57" y="33.57" width="16.73" height="16.73" rx=".95" ry=".95" transform="translate(-17.37 41.94) rotate(-45)"/></svg>